<svg xmlns="http://www.w3.org/2000/svg" xmlns:xlink="http://www.w3.org/1999/xlink" width="114" height="115" viewBox="0 0 114 115">
    <defs>
        <path id="a" d="M0 .27h114v114H0z"/>
    </defs>
    <g fill="none" fill-rule="evenodd">
        <g>
            <mask id="b" fill="#fff">
                <use xlink:href="#a"/>
            </mask>
            <path fill="#F5FCFF" d="M114 57.27c0 31.48-25.52 57-57 57s-57-25.52-57-57 25.52-57 57-57 57 25.52 57 57" mask="url(#b)"/>
        </g>
        <path fill="#FFF" d="M82.671 78.266H30.88V36.095a3.25 3.25 0 0 1 3.25-3.25h45.292a3.25 3.25 0 0 1 3.25 3.25v42.171z"/>
        <path fill="#A8E4FF" d="M33.428 77.402V35.23c0-.237.027-.467.075-.69a3.247 3.247 0 0 0-3.075 3.24v42.172H82.22v-2.55H33.428z"/>
        <path fill="#2C538A" d="M12.226 79.86c0-.313.328-.47 5.125-.675 2.413-.104 8.736-.354 10.133-.277 1.397.076 2.71-.004 4.083-.004l1.64.002c2.195.003 4.353.007 6.326.007 4.32 0 47.198.094 48.003.07.805-.023 2.172-.05 2.935-.04 2.24.026 2.809.01 4.407.083 4.413.203 6.896.536 6.896.835 0 .298-2.524.752-6.9.954-3.169.147-5.503.27-10.577.273-.924.001-5.356.05-6.444 0-1.058-.048-36.695-.408-38.485-.408-7.358 0-18.742-.113-21.973-.015-3.23.099-5.17-.49-5.17-.804"/>
        <path fill="#2C538A" d="M30.238 79.817c-.313 0-.47-.514-.676-8.004-.104-3.768-.353-13.642-.277-15.823.076-2.182-.004-4.234-.003-6.378 0-.854 0-1.708.002-2.56l.004-5.07.002-2.448v-1.78a5.752 5.752 0 0 1 .011-.352c.004-.129.016-.257.039-.384a4.274 4.274 0 0 1 1.096-2.303 4.318 4.318 0 0 1 2.634-1.367c.187-.03.392-.029.578-.038h.457l9.275.01c7.246.01 16.288.02 25.159.03l6.59.008 3.212.004h.597l.26.013c.345.018.686.09 1.015.188a4.394 4.394 0 0 1 1.731 1.052c.475.48.833 1.065 1.042 1.696.102.315.168.641.196.968.024.358.016.584.017.83l-.003 2.888-.005 5.29-.001 11.295c.023 1.258.05 3.392.04 4.584-.025 3.498-.009 4.386-.083 6.882-.203 6.89-.535 10.769-.834 10.769-.298 0-.752-3.942-.955-10.776-.147-4.948-.27-8.593-.273-16.518 0-1.442-.05-8.363 0-10.063l.031-2.942.012-1.38c.006-.57.02-.847-.117-1.232-.23-.73-.973-1.433-1.933-1.5l-19.859-.146-20.14-.13-3.895-.023c-.578-.001-1.17-.012-1.644-.005-.41.013-.785.12-1.098.28a2.596 2.596 0 0 0-1.167 1.24c-.178.407-.2.716-.208.852l-.054 19.53c-.015 6.511-.019 12.217.03 14.74.1 5.045-.49 8.073-.805 8.073"/>
        <path fill="#365386" d="M52.588 52.484a1.638 1.638 0 1 1-3.277 0 1.638 1.638 0 0 1 3.277 0M64.24 52.484a1.638 1.638 0 1 1-3.276.001 1.638 1.638 0 0 1 3.276 0"/>
        <path fill="#2C538A" d="M50.217 65.82c-.105 0-.183-.018-.245-.185-.057-.166-.128-.484-.09-1.085a6.18 6.18 0 0 1 .24-1.353c.147-.504.359-.958.48-1.094.218-.284.376-.579.59-.859.083-.113.184-.21.276-.315.37-.422.802-.772 1.21-1.067.224-.15.963-.689 2.11-1.015 1.135-.335 2.656-.424 4.051-.006 1.4.392 2.596 1.24 3.304 2.031.728.785 1.039 1.447 1.079 1.48.106.175.273.481.348.661.184.54.246.674.292 1.081.12 1.128-.167 1.733-.346 1.726-.218-.002-.48-.582-.824-1.439a9.744 9.744 0 0 0-1.067-1.909c-.1-.163-.706-.832-.874-.98-.036-.037-.376-.411-.997-.79a5.706 5.706 0 0 0-2.493-.834 6.05 6.05 0 0 0-2.677.34c-.355.143-.657.279-.864.409-.217.116-.35.207-.386.239a6.453 6.453 0 0 0-1.805 1.962c-.464.772-.634 1.559-.665 1.9a1.45 1.45 0 0 1-.097.457 1.279 1.279 0 0 1-.159.343c-.127.189-.285.302-.39.302"/>
    </g>
</svg>
