<svg xmlns="http://www.w3.org/2000/svg" xmlns:xlink="http://www.w3.org/1999/xlink" width="115" height="114" viewBox="0 0 115 114">
    <defs>
        <path id="a" d="M0 0h114v114H0z"/>
    </defs>
    <g fill="none" fill-rule="evenodd" transform="translate(.481)">
        <mask id="b" fill="#fff">
            <use xlink:href="#a"/>
        </mask>
        <path fill="#F5FCFF" d="M114 57c0 31.48-25.52 57-57 57S0 88.48 0 57 25.52 0 57 0s57 25.52 57 57" mask="url(#b)"/>
        <path fill="#FFF" d="M39.368 67.526l3.898 4.92c3.614-3.361 8.453-5.423 13.767-5.423 5.334 0 10.19 2.077 13.808 5.461l3.88-4.94c-4.695-4.215-10.896-6.785-17.688-6.785-6.78 0-12.973 2.563-17.665 6.767M57.033 33.006c-13.282 0-25.464 4.801-34.905 12.755l3.89 4.91c8.37-7.106 19.2-11.4 31.015-11.4 11.794 0 22.605 4.278 30.97 11.361l3.87-4.928a54.318 54.318 0 0 0-15.988-9.319 53.975 53.975 0 0 0-18.852-3.379" mask="url(#b)"/>
        <path fill="#FFF" d="M30.915 56.854l3.897 4.92c5.949-5.195 13.721-8.352 22.221-8.352s16.271 3.157 22.221 8.35l3.877-4.936c-7.02-6.03-16.14-9.679-26.098-9.679-9.967 0-19.096 3.657-26.118 9.697M49.231 79.957a8.136 8.136 0 0 0-.278 2.081c0 4.463 3.618 8.09 8.08 8.09a8.08 8.08 0 0 0 8.08-8.08 8.27 8.27 0 0 0-.248-1.975 8.067 8.067 0 0 0-7.832-6.114 8.061 8.061 0 0 0-7.802 5.993" mask="url(#b)"/>
        <path fill="#A8E4FF" d="M70.995 70.475a21.173 21.173 0 0 0-13.966-5.248 21.172 21.172 0 0 0-13.966 5.249l-1.896-2.394c-.185.15-.372.3-.553.455l2.45 3.092a21.17 21.17 0 0 1 13.965-5.249 21.17 21.17 0 0 1 13.966 5.248l3.18-3.863c-.18-.154-.236-.481-.42-.631l-2.76 3.34z" mask="url(#b)"/>
        <path fill="#2C538A" d="M39.479 67.438c.245-.195.554-.057 3.43 3.242l.293.336.091.077.084.065c.03-.014.061-.07.087-.1l.036-.051c.005-.007.015-.018.011-.019-.009.006.011-.012.037-.034l.067-.059c.18-.155.359-.32.55-.475.381-.307.772-.619 1.177-.9 1.598-1.16 3.312-1.923 3.947-2.132 1.276-.415 2.468-.84 3.767-1.087a20.39 20.39 0 0 1 1.558-.232 21.368 21.368 0 0 1 6.053.181c.828.154 3.274.563 6.268 2.143.745.395 1.516.865 2.297 1.408.382.282.783.562 1.163.884l.283.231c-.016-.012-.001.001-.001.001l.02.02 2.569-3.25-.104-.092-.773-.61a25.547 25.547 0 0 0-9.41-4.495 26.808 26.808 0 0 0-3.724-.608c-2.364-.201-4.409-.064-5.859.151-.724.117-1.309.215-1.719.314a9.762 9.762 0 0 0-.706.163c-.68.192-1.82.55-2.448.779-.929.313-1.49.568-1.992.78-.497.222-.933.409-1.566.713-1.757.826-3.068 1.625-3.975 2.162-.907.535-1.422.805-1.528.687-.094-.104.196-.639.941-1.454.74-.814 1.95-1.91 3.715-2.972 1.276-.769 2.439-1.364 3.865-1.914 1.427-.536 3.117-1.079 5.508-1.387.434-.055 1.697-.222 2.988-.238.645-.032 1.296.007 1.849.015.552.04 1.007.08 1.264.11.23.06 2.401.193 5.466 1.162a27.68 27.68 0 0 1 5.034 2.18c.447.238.88.521 1.332.788.432.296.888.571 1.318.897.439.313.874.642 1.298.993l.324.26.511.442 1.05.914-4.87 6.083-.1.126c-.039-.01-.081-.065-.121-.096l-.243-.218-.482-.432c-.304-.28-.698-.617-.82-.712-.358-.311-.737-.584-1.101-.859a21.181 21.181 0 0 0-2.216-1.38c-2.921-1.539-5.359-1.903-5.748-1.972a19.899 19.899 0 0 0-5.342-.16 19.3 19.3 0 0 0-5.493 1.41c-1.703.703-3.174 1.64-4.32 2.518-.299.25-.479.372-.945.787-.195.175-.385.343-.569.506l-.27.242-.066.059-.033.03c-.01.005-.019-.018-.029-.026l-.106-.134a89.244 89.244 0 0 0-1.277-1.567c-1.907-2.247-2.541-3.998-2.295-4.194" mask="url(#b)"/>
        <path fill="#A8E4FF" d="M88.45 48.306c-8.365-7.083-19.176-11.362-30.97-11.362-11.814 0-22.644 4.294-31.015 11.4L23.5 44.603c-.463.365-.921.735-1.372 1.114l3.89 4.911c8.37-7.106 19.2-11.4 31.015-11.4 11.794 0 22.605 4.278 30.97 11.36l3.87-4.927c-.27-.226-.55-.441-.825-.663l-2.598 3.309z" mask="url(#b)"/>
        <path fill="#2C538A" d="M57.033 33.147c0 .157-.144.278-1.315.408-.293.033-.65.066-1.085.1l-1.548.177-.974.105-1.115.163-1.272.185-1.43.266-.834.153-.96.221c-.678.156-1.432.317-2.214.549l-1.208.332c-.411.116-.821.261-1.24.392l-1.255.409-1.242.46a55.735 55.735 0 0 0-4.475 1.896c-.645.283-1.198.59-1.675.823-.472.241-.863.418-1.125.559-2.137 1.058-3.992 2.33-5.902 3.675-.745.56-1.514 1.091-2.225 1.688l-.271.218-.008.005 2.527 3.197.43-.348c.428-.363.893-.678 1.339-1.018.296-.22.713-.541 1.271-.908.552-.375 1.213-.838 2.012-1.314a46.549 46.549 0 0 1 6.097-3.21 49.257 49.257 0 0 1 8.495-2.834c3.15-.75 6.582-1.182 10.075-1.26 3.493-.072 7.056.204 10.458.887a49.478 49.478 0 0 1 9.554 2.902 48.293 48.293 0 0 1 7.617 4.024c1.06.707 2.037 1.373 2.885 2.027.435.313.833.627 1.2.934l.22.18 2.593-3.298c.063-.037-.04-.078-.035-.085l.062.051-.1-.082c-.21-.167-.416-.328-.616-.486-.47-.372-.927-.709-1.359-1.028a54.509 54.509 0 0 0-5.671-3.623c-1.627-.888-2.131-1.109-2.226-1.159-1.238-.598-3.386-1.503-4.605-1.96-1.78-.69-2.928-1.039-3.941-1.35a78.2 78.2 0 0 0-3.228-.896c-3.657-.916-6.595-1.325-8.598-1.583-2.005-.254-3.083-.385-3.083-.544 0-.139 1.095-.355 3.166-.419 2.066-.061 5.119.063 8.915.802 2.741.554 5.101 1.188 7.787 2.17 2.674.999 5.712 2.31 9.53 4.697a55.318 55.318 0 0 1 4.469 3.104l.442.346.218.172.305.245 1.549 1.272-2.11 2.679-.894 1.11-2.236 2.837-1.872-1.538c-.47-.408-1.117-.882-1.878-1.46a47.717 47.717 0 0 0-6.258-3.865c-2.608-1.333-5.704-2.642-9.132-3.545-3.42-.924-7.144-1.515-10.888-1.605-7.505-.289-14.93 1.526-20.196 3.892a47.355 47.355 0 0 0-6.357 3.372c-.776.493-1.4.933-1.882 1.252l-.932.686c-.398.296-.808.594-1.19.916l-1.676 1.36c-1.721-2.18-3.366-4.263-4.712-5.97l2.32-1.864 1.87-1.376c.64-.43 1.276-.86 1.908-1.284l1.931-1.185a55.281 55.281 0 0 1 7.611-3.703c1.207-.503 2.393-.88 3.493-1.26 1.115-.33 2.146-.666 3.108-.89l1.363-.349 1.224-.259 1.06-.227.887-.159c.701-.116 1.365-.248 2-.307a60.394 60.394 0 0 1 1.791-.156 29.686 29.686 0 0 1 2.86.006c1.565.139 2.407.346 2.406.503" mask="url(#b)"/>
        <path fill="#A8E4FF" d="M79.254 59.893c-5.95-5.194-13.721-8.35-22.22-8.35-8.5 0-16.273 3.157-22.223 8.351l-3.017-3.809c-.295.239-.592.477-.88.724l3.897 4.92c5.95-5.194 13.722-8.351 22.222-8.351 8.5 0 16.27 3.156 22.22 8.35l3.878-4.937c-.287-.246-.582-.482-.876-.72l-3.001 3.822z" mask="url(#b)"/>
        <path fill="#2C538A" d="M31.025 56.766c.12-.094.274-.086.873.506.3.296.71.738 1.283 1.385l.988 1.133.554.642.206.2.164-.16.215-.205c.039-.037.08-.075.12-.115.1-.083.204-.167.31-.253.427-.346.894-.738 1.42-1.113 1.026-.784 2.24-1.557 3.448-2.256 2.427-1.389 4.907-2.303 5.824-2.547 1.83-.507 3.552-.994 5.401-1.265a37.289 37.289 0 0 1 2.214-.26c2.976-.244 5.926-.114 8.573.331l.862.143 1.284.271c.5.108 1.062.27 1.7.43.627.2 1.337.386 2.093.671a33.824 33.824 0 0 1 5.232 2.34c.963.545 1.98 1.15 3.01 1.872l.784.549.783.6.399.305.118.098.21.177 2.567-3.25-.403-.334c-.403-.32-.823-.625-1.237-.942a39.175 39.175 0 0 0-14.106-6.511 41.009 41.009 0 0 0-5.628-.887c-1.789-.162-3.464-.148-4.967-.106-.75.047-1.46.086-2.119.15-.657.08-1.27.131-1.823.221l-1.495.242-1.134.237c-.633.123-1.003.236-1.078.253-.497.142-1.173.312-1.826.534l-.96.3-.807.285c-.683.223-1.227.437-1.694.628-.47.183-.864.341-1.225.51l-1.077.47-1.216.576c-2.561 1.226-4.457 2.415-5.75 3.225-1.296.81-2.003 1.238-2.109 1.115-.089-.103.403-.804 1.54-1.895 1.132-1.092 2.928-2.576 5.49-4.03a36.23 36.23 0 0 1 5.572-2.622c2.044-.748 4.46-1.48 7.86-1.967.31-.037.915-.108 1.67-.199.379-.037.796-.061 1.233-.096a19.36 19.36 0 0 1 1.355-.07 32.652 32.652 0 0 1 4.438.116c.347.04 3.67.22 8.288 1.578a41.36 41.36 0 0 1 7.537 3.101c.666.337 1.308.74 1.977 1.117.643.421 1.318.81 1.953 1.27l.97.678.946.722c.32.238.633.486.936.746.52.43 1.04.863 1.56 1.295l-4.958 6.202-1.202-1.012-.573-.48-.383-.297-.751-.58-.757-.536a34.4 34.4 0 0 0-2.94-1.837 33.356 33.356 0 0 0-5.2-2.308c-3.044-1.02-5.018-1.28-5.44-1.358-2.344-.381-5.059-.51-7.83-.297-1.386.116-2.787.298-4.154.597a31.09 31.09 0 0 0-3.982 1.097 32.02 32.02 0 0 0-8.943 4.757l-.897.703-1.014.868-.595.509-.718-.906-.57-.74c-.265-.352-.507-.69-.727-1.009a21.782 21.782 0 0 1-1.059-1.677c-.535-.95-.73-1.541-.613-1.635" mask="url(#b)"/>
        <path fill="#A8E4FF" d="M58.376 88.696c-4.462 0-8.08-3.628-8.08-8.09 0-.717.102-1.42.278-2.08v-.006a8.03 8.03 0 0 1 1.373-2.8 8.058 8.058 0 0 0-2.716 4.187v.006a8.136 8.136 0 0 0-.278 2.08c0 4.463 3.618 8.09 8.08 8.09 2.62 0 4.94-1.251 6.416-3.183a8.04 8.04 0 0 1-5.073 1.796" mask="url(#b)"/>
        <path fill="#2C538A" d="M49.368 79.993c.154.04.248.116.272.493.04.376-.044 1.058.167 2.272.113.607.43 1.678.974 2.546.517.887 1.22 1.533 1.44 1.793.436.545 1.042.837 1.625 1.156.242.113.477.244.732.324a6.981 6.981 0 0 0 3.044.432 7.548 7.548 0 0 0 1.569-.309 6.813 6.813 0 0 0 2.51-1.44c.44-.367.823-.843 1.187-1.358.35-.527.63-1.126.848-1.763.386-1.29.455-2.752.028-4.105a6.958 6.958 0 0 0-2.193-3.382 6.948 6.948 0 0 0-3.154-1.533 6.93 6.93 0 0 0-2.524-.053c-.615.108-.97.234-1.016.25-.192.06-.43.187-.675.286-.233.127-.472.235-.633.331-.24.136-.437.246-.592.363-.16.11-.296.2-.412.302-.246.185-.446.362-.751.622-.813.75-1.34 1.48-1.704 1.994-.368.515-.586.816-.742.774-.072-.019-.127-.124-.16-.317a2.549 2.549 0 0 1 .01-.829c.098-.708.436-1.75 1.281-2.836a8.258 8.258 0 0 1 2.144-1.922c.873-.537 2.005-1.018 3.631-1.18l.798-.038c.36.011.795.014 1.229.081.87.11 1.727.383 2.038.546.133.074 1.688.602 3.235 2.254a9.005 9.005 0 0 1 1.929 3.225 8.873 8.873 0 0 1 .394 4.22c-.214 1.437-.772 2.823-1.583 3.923a8.997 8.997 0 0 1-2.773 2.5 8.84 8.84 0 0 1-2.58.988c-.694.131-1.156.173-1.292.171a8.598 8.598 0 0 1-3.666-.535c-1.236-.464-2.393-1.234-3.256-2.172a9.026 9.026 0 0 1-1.835-2.915c-.19-.463-.296-.902-.397-1.278-.082-.379-.129-.701-.18-.944-.047-.492-.07-.942.006-1.33.067-.387.186-.705.315-.951.264-.494.563-.696.712-.656" mask="url(#b)"/>
        <path fill="#F5FCFF" d="M30.28 76.318l5.023 5.023L83.72 32.924l-5.023-5.023L30.28 76.318zm5.023 9.512l-9.512-9.512L78.697 23.41l9.512 9.513L35.303 85.83z" mask="url(#b)"/>
        <path fill="#FFF" d="M36.339 82.203l-6.921-6.92L77.66 27.038l6.92 6.921z" mask="url(#b)"/>
        <path fill="#A8E4FF" d="M31.577 75.282l47.185-47.185-1.1-1.101-48.244 48.243 6.92 6.92 1.06-1.057z" mask="url(#b)"/>
        <path fill="#2C538A" d="M36.239 82.303c-.11.11-.295.093-1.208-.674a58.55 58.55 0 0 1-2-1.788l-1.563-1.46-2.152-2.045-1.076-1.054c1.661-1.73 4.398-4.577 6.938-7.22 2.334-2.42 4.5-4.638 5.344-5.431 1.774-1.668 3.337-3.343 5.028-5.034l2.021-2.018 7.8-7.79 22.29-22.252 8.402 8.423A776037.63 776037.63 0 0 1 54.6 65.38c-.976 1.01-2.64 2.71-3.588 3.645-2.778 2.742-3.467 3.454-5.488 5.371-5.58 5.293-8.875 8.118-9.086 7.906-.21-.21 2.578-3.641 7.826-9.176 3.8-4.008 6.589-6.97 12.839-13.226 1.137-1.137 6.563-6.632 7.939-7.94L83.275 33.96a.39.39 0 0 0-.039-.054l-.037-.044-.023-.027a3.354 3.354 0 0 1-.068-.072l-1.599-1.628-3.848-3.908-21.244 21.014c-4.449 4.432-10.09 10.051-15.121 15.06l-6.855 6.84-2.651 2.666-1.058 1.07-.383.405c.16.155.195.189.23.221l.234.225.361.357.687.691c.44.452.85.883 1.224 1.291.751.817 1.37 1.54 1.857 2.15.97 1.218 1.408 1.974 1.297 2.086" mask="url(#b)"/>
    </g>
</svg>
